#!OML:ASF X:\für Bonn\!DataBase\2005_08_11_Bastian_Final\c3d\Bastian.ASF
:FULLY-SPECIFIED
:DEGREES
68
root 1.91264 16.1174 33.7134 1068.47 -2.51623 -1.45995
lowerback 17.0383 0.613273 2.2116
upperback 8.44146 1.13633 0.633744
thorax -0.516303 0.61568 -0.776499
lowerneck -8.14245 -5.32171 -7.77755
upperneck -2.45507 -6.47192 7.28767
head 1.18823 -3.08992 3.5038
rclavicle -2.08724e-014 -3.57812e-015
rhumerus -41.6864 7.22678 -89.4725
rradius 50.8274
rwrist 11.2134
rhand -19.6482 21.6024
rfingers 7.12502
rthumb 6.67948 -8.27229
lclavicle -2.08724e-014 -3.57812e-015
lhumerus -31.6846 -6.56445 90.6493
lradius 66.7162
lwrist -167.533
lhand -25.4635 12.4428
lfingers 7.12502
lthumb 1.06389 42.4199
rfemur -22.4336 -9.18822 23.4575
rtibia 58.0832
rfoot -17.4254 3.29561
rtoes 12.133
lfemur -22.8079 3.71689 -18.3588
ltibia 52.1524
lfoot -5.8489 -16.7538
ltoes -2.90075
69
root 1.89993 15.9463 33.9017 1068.23 -2.346 -1.57798
lowerback 17.3523 0.533366 2.27206
upperback 8.36528 1.05312 0.699504
thorax -0.762695 0.571412 -0.732914
lowerneck -8.6256 -5.34484 -7.59529
upperneck -2.56673 -6.48057 7.27488
head 1.2297 -3.08655 3.45475
rclavicle -2.05245e-014 -1.04362e-014
rhumerus -42.1609 6.62567 -89.0711
rradius 50.2318
rwrist 11.2378
rhand -20.3675 21.3383
rfingers 7.12502
rthumb 5.98505 -8.5572
lclavicle -2.05245e-014 -1.04362e-014
lhumerus -31.619 -6.45083 90.7639
lradius 66.4147
lwrist -167.218
lhand -25.3044 12.0634
lfingers 7.12502
lthumb 1.21755 42.0397
rfemur -22.9143 -9.50185 23.5722
rtibia 60.8564
rfoot -19.6907 3.03099
rtoes 11.7425
lfemur -23.6354 3.44792 -18.2517
ltibia 55.5834
lfoot -8.89268 -17.0986
ltoes -2.05167
70
root 1.88463 15.7944 34.0806 1068 -2.16636 -1.70034
lowerback 17.7621 0.456111 2.30172
upperback 8.24223 0.973504 0.773318
thorax -1.10901 0.526516 -0.664822
lowerneck -9.10352 -5.35758 -7.43196
upperneck -2.61867 -6.47783 7.25869
head 1.28951 -3.07758 3.40873
rclavicle -9.0944e-015 -1.19271e-015
rhumerus -42.7621 6.20621 -88.7652
rradius 49.7899
rwrist 10.8306
rhand -21.0876 21.1865
rfingers 7.12502
rthumb 5.28973 -8.72744
lclavicle -9.0944e-015 -1.19271e-015
lhumerus -31.7589 -6.31698 90.8689
lradius 66.1145
lwrist -166.713
lhand -25.1911 11.7335
lfingers 7.12502
lthumb 1.32704 41.7091
rfemur -23.2917 -9.74775 23.6506
rtibia 63.3486
rfoot -21.4321 2.85276
rtoes 11.6351
lfemur -24.3634 3.0549 -18.122
ltibia 58.7052
lfoot -11.2761 -17.2531
ltoes -0.681444
71
root 1.87063 15.6685 34.2573 1067.78 -1.97992 -1.85395
lowerback 18.16 0.362567 2.35867
upperback 8.11798 0.877442 0.841217
thorax -1.4497 0.4743 -0.613766
lowerneck -9.55586 -5.37381 -7.2491
upperneck -2.64146 -6.48698 7.28314
head 1.3564 -3.07451 3.37302
rclavicle -3.72721e-015 -1.54058e-014
rhumerus -43.2106 5.81018 -88.512
rradius 49.3195
rwrist 10.2241
rhand -21.7527 21.0883
rfingers 7.12502
rthumb 4.64759 -8.84067
lclavicle -3.72721e-015 -1.54058e-014
lhumerus -31.931 -6.1265 90.9327
lradius 65.9042
lwrist -166.057
lhand -25.1319 11.3076
lfingers 7.12502
lthumb 1.3842 41.2829
rfemur -23.4874 -10.0027 23.7314
rtibia 65.4292
rfoot -22.7832 2.70584
rtoes 10.9341
lfemur -24.8195 2.55865 -17.9574
ltibia 61.3127
lfoot -13.1371 -17.3002
ltoes 0.721586
72
root 1.85539 15.5798 34.4319 1067.58 -1.81021 -1.99857
lowerback 18.4545 0.275368 2.36929
upperback 7.98688 0.780634 0.927714
thorax -1.74531 0.420834 -0.514252
lowerneck -9.97998 -5.39327 -7.23117
upperneck -2.5704 -6.49149 7.38386
head 1.45987 -3.06703 3.39567
rclavicle -7.8023e-015 -1.41137e-014
rhumerus -43.5143 5.52173 -88.2973
rradius 48.88
rwrist 9.36853
rhand -22.2133 21.049
rfingers 7.12502
rthumb 4.20284 -8.88925
lclavicle -7.8023e-015 -1.41137e-014
lhumerus -32.1597 -5.86961 90.9895
lradius 65.8373
lwrist -165.175
lhand -25.2224 10.7753
lfingers 7.12502
lthumb 1.29679 40.7511
rfemur -23.4087 -10.2264 23.7804
rtibia 66.9749
rfoot -23.811 2.62344
rtoes 9.98407
lfemur -24.9692 2.05607 -17.7965
ltibia 63.3109
lfoot -14.5986 -17.3573
ltoes 1.67865
73
root 1.83891 15.5341 34.6056 1067.51 -1.65217 -2.21181
lowerback 18.3577 0.187263 2.44719
upperback 7.88308 0.681599 1.02003
thorax -1.8087 0.37049 -0.441671
lowerneck -10.2724 -5.4275 -7.31069
upperneck -2.48272 -6.51726 7.61026
head 1.55794 -3.06942 3.48217
rclavicle -6.28657e-015 -6.55989e-015
rhumerus -44.0315 5.23553 -88.1348
rradius 48.8325
rwrist 8.36616
rhand -22.4496 20.9896
rfingers 7.12502
rthumb 3.97463 -8.95306
lclavicle -6.28657e-015 -6.55989e-015
lhumerus -32.3879 -5.61605 91.0175
lradius 65.9313
lwrist -164.052
lhand -25.3984 10.0794
lfingers 7.12502
lthumb 1.12681 40.0562
rfemur -23.1102 -10.4356 23.8909
rtibia 67.9356
rfoot -24.6155 2.66374
rtoes 9.15372
lfemur -24.9403 1.51901 -17.5495
ltibia 64.7069
lfoot -15.7236 -17.3788
ltoes 1.99645
74
root 1.82151 15.5219 34.7811 1067.54 -1.47698 -2.48705
lowerback 17.899 0.0894556 2.60211
upperback 7.81542 0.568839 1.1072
thorax -1.64523 0.317826 -0.413107
lowerneck -10.3489 -5.44367 -7.32772
upperneck -2.48431 -6.53652 7.84255
head 1.5851 -3.07288 3.56406
rclavicle 6.06293e-015 3.8763e-015
rhumerus -44.7302 4.94574 -88.0018
rradius 49.1802
rwrist 7.16471
rhand -22.3877 20.8944
rfingers 7.12502
rthumb 4.03441 -9.04719
lclavicle 6.06293e-015 3.8763e-015
lhumerus -32.6098 -5.3831 91.0131
lradius 66.1871
lwrist -162.904
lhand -25.6272 9.53851
lfingers 7.12502
lthumb 0.905802 39.5163
rfemur -22.592 -10.6003 24.0666
rtibia 68.3681
rfoot -25.2662 2.7175
rtoes 8.53577
lfemur -24.7326 0.888093 -17.2423
ltibia 65.576
lfoot -16.4338 -17.3815
ltoes 2.17012
75
root 1.80395 15.5276 34.9601 1067.74 -1.31849 -2.78733
lowerback 17.0694 -0.00827498 2.74283
upperback 7.7527 0.438712 1.23116
thorax -1.28381 0.25788 -0.334509
lowerneck -10.2519 -5.45635 -7.47446
upperneck -2.52828 -6.54672 8.11038
head 1.57395 -3.07408 3.68777
rclavicle -1.55301e-014 -2.98177e-016
rhumerus -45.5056 4.67577 -87.816
rradius 49.7305
rwrist 6.07861
rhand -22.1477 20.8133
rfingers 7.12502
rthumb 4.26614 -9.1237
lclavicle -1.55301e-014 -2.98177e-016
lhumerus -32.8484 -5.09337 91.0417
lradius 66.5736
lwrist -161.752
lhand -25.8427 9.14909
lfingers 7.12502
lthumb 0.697691 39.1277
rfemur -22.0653 -10.6658 24.2995
rtibia 68.385
rfoot -25.5781 2.80005
rtoes 7.99719
lfemur -24.473 0.268354 -16.9122
ltibia 65.9856
lfoot -16.5148 -17.4088
ltoes 2.39421
76
root 1.78693 15.5557 35.1379 1068.12 -1.15507 -3.15227
lowerback 15.9691 -0.107187 2.958
upperback 7.66026 0.303324 1.35268
thorax -0.808685 0.198399 -0.302196
lowerneck -9.98487 -5.45094 -7.60393
upperneck -2.62312 -6.54441 8.41838
head 1.51556 -3.07236 3.82718
rclavicle 2.5842e-015 -4.17448e-015
rhumerus -46.2998 4.37762 -87.6254
rradius 50.3318
rwrist 5.0316
rhand -21.7746 20.7867
rfingers 7.12502
rthumb 4.62638 -9.14283
lclavicle 2.5842e-015 -4.17448e-015
lhumerus -33.1136 -4.90411 91.0395
lradius 67.1021
lwrist -160.666
lhand -26.1103 8.99363
lfingers 7.12502
lthumb 0.439215 38.9729
rfemur -21.5858 -10.6555 24.6466
rtibia 68.0472
rfoot -25.6121 2.81286
rtoes 7.40927
lfemur -24.2585 -0.30614 -16.5077
ltibia 66.0516
lfoot -16.3124 -17.4393
ltoes 2.76115
77
root 1.77087 15.6313 35.311 1068.56 -1.00735 -3.66741
lowerback 14.805 -0.224335 3.31332
upperback 7.54266 0.153562 1.52642
thorax -0.321437 0.134785 -0.296086
lowerneck -9.62392 -5.44946 -7.77886
upperneck -2.71406 -6.54907 8.72292
head 1.44397 -3.07646 3.97641
rclavicle 4.39811e-015 3.47873e-015
rhumerus -46.9147 4.03848 -87.4013
rradius 50.7918
rwrist 4.26884
rhand -21.2948 20.7837
rfingers 7.12502
rthumb 5.08968 -9.13519
lclavicle 4.39811e-015 3.47873e-015
lhumerus -33.4469 -4.70612 91.0701
lradius 67.6789
lwrist -159.685
lhand -26.381 9.13543
lfingers 7.12502
lthumb 0.177728 39.1151
rfemur -20.9684 -10.6141 25.1639
rtibia 67.3041
rfoot -25.2686 2.84471
rtoes 6.83291
lfemur -23.967 -0.779393 -15.9188
ltibia 65.8103
lfoot -15.8271 -17.4414
ltoes 2.54796
78
root 1.75632 15.733 35.4754 1069.02 -0.875511 -4.27696
lowerback 13.6744 -0.342924 3.80816
upperback 7.39857 0.00904585 1.69373
thorax 0.125806 0.0779529 -0.380203
lowerneck -9.12128 -5.44195 -7.93447
upperneck -2.85305 -6.55575 9.06083
head 1.33188 -3.08519 4.13776
rclavicle 6.53505e-015 -2.18663e-015
rhumerus -47.4545 3.62761 -87.1597
rradius 51.164
rwrist 3.73513
rhand -20.7699 20.9163
rfingers 7.12502
rthumb 5.59655 -8.9898
lclavicle 6.53505e-015 -2.18663e-015
lhumerus -33.8402 -4.68576 91.0926
lradius 68.3254
lwrist -158.854
lhand -26.5225 9.5478
lfingers 7.12502
lthumb 0.0411145 39.5275
rfemur -20.2687 -10.5458 25.7992
rtibia 66.2519
rfoot -24.5612 2.77248
rtoes 5.94277
lfemur -23.681 -1.10764 -15.2162
ltibia 65.4106
lfoot -14.9482 -17.3747
ltoes 1.33156
79
root 1.74116 15.8554 35.6346 1069.41 -0.754856 -4.90876
lowerback 12.6183 -0.460596 4.29804
upperback 7.28002 -0.145642 1.87402
thorax 0.563447 0.0169653 -0.450315
lowerneck -8.65753 -5.43308 -8.0875
upperneck -2.93248 -6.56138 9.36733
head 1.24464 -3.09362 4.28756
rclavicle 8.77137e-015 -5.36719e-015
rhumerus -48.0124 3.20008 -86.9025
rradius 51.5562
rwrist 3.5228
rhand -20.3361 21.143
rfingers 7.12502
rthumb 6.01534 -8.75161
lclavicle 8.77137e-015 -5.36719e-015
lhumerus -34.2275 -4.6933 91.1148
lradius 68.9519
lwrist -158.176
lhand -26.6987 10.1415
lfingers 7.12502
lthumb -0.129114 40.1212
rfemur -19.3939 -10.3735 26.4684
rtibia 64.9122
rfoot -23.5109 2.68096
rtoes 5.05494
lfemur -23.3079 -1.33574 -14.4842
ltibia 64.8915
lfoot -13.6663 -17.2328
ltoes -0.812011
